<svg width="49" height="53" viewBox="0 0 49 53" fill="none" xmlns="http://www.w3.org/2000/svg">
<g clip-path="url(#clip0)">
<path d="M42.6269 20.3533C42.6279 19.0509 42.2211 17.7726 41.4497 16.6543C40.6783 15.5359 39.5711 14.6193 38.2458 14.0019C36.9205 13.3845 35.4267 13.0893 33.923 13.1478C32.4194 13.2062 30.9622 13.6161 29.7062 14.3339C27.9035 12.948 25.7069 12.0025 23.342 11.5944C20.9772 11.1864 18.5294 11.3306 16.2503 12.0122C13.9711 12.6937 11.9428 13.8881 10.3738 15.4726C8.80473 17.0571 7.75153 18.9745 7.32241 21.0278C5.2594 21.1878 3.34711 22.0299 1.98338 23.3789C0.619645 24.728 -0.090529 26.48 0.000597646 28.2705C0.0917243 30.0611 0.977135 31.7523 2.47263 32.9924C3.96813 34.2325 5.95856 34.9259 8.02985 34.9283H36.1268C37.5489 34.931 38.94 34.5691 40.1246 33.8882C41.3091 33.2074 42.2341 32.2381 42.7825 31.1027C43.331 29.9674 43.4785 28.7169 43.2063 27.5091C42.9342 26.3013 42.2546 25.1903 41.2534 24.3164C42.1518 23.1411 42.6295 21.7625 42.6269 20.3533ZM34.3 15.794C35.253 15.7943 36.1881 16.0182 37.0058 16.4417C37.8235 16.8653 38.4932 17.4727 38.9438 18.1994C39.3943 18.926 39.6088 19.7448 39.5644 20.5686C39.52 21.3923 39.2183 22.1902 38.6916 22.8775C37.2986 22.3991 35.7645 22.322 34.3168 22.6575C34.2096 20.3906 33.3447 18.1993 31.827 16.3492C32.5855 15.9899 33.4353 15.7991 34.3 15.794ZM36.1375 32.2783H8.02985C7.36786 32.2884 6.71019 32.1842 6.09522 31.972C5.48025 31.7597 4.9203 31.4436 4.44805 31.042C3.9758 30.6405 3.6007 30.1616 3.34465 29.6332C3.0886 29.1049 2.95673 28.5377 2.95673 27.9648C2.95673 27.3919 3.0886 26.8247 3.34465 26.2964C3.6007 25.7681 3.9758 25.2891 4.44805 24.8876C4.9203 24.4861 5.48025 24.1699 6.09522 23.9577C6.71019 23.7454 7.36786 23.6412 8.02985 23.6513C8.10433 23.6532 8.17854 23.6598 8.25188 23.6711L8.51526 23.699C8.71925 23.7172 8.9254 23.6997 9.12145 23.6477C9.31751 23.5956 9.49949 23.51 9.65659 23.396C9.81369 23.2819 9.94271 23.1417 10.036 22.9837C10.1293 22.8256 10.1849 22.653 10.1996 22.476C10.343 20.7439 11.0554 19.0833 12.2528 17.6897C13.4502 16.2961 15.0828 15.2276 16.9584 14.6099C18.834 13.9922 20.8745 13.8511 22.8397 14.2031C24.8049 14.5551 26.6129 15.3857 28.0509 16.597C28.1125 16.7833 28.2233 16.9548 28.3745 17.0978C28.5257 17.2408 28.7132 17.3515 28.9222 17.4211C29.8649 18.4186 30.5478 19.5804 30.9243 20.827C31.3009 22.0737 31.3623 23.376 31.1043 24.645C31.0541 24.909 31.0973 25.1799 31.2284 25.4221C31.3595 25.6644 31.5723 25.8666 31.8387 26.0022C32.1052 26.1379 32.4128 26.2006 32.7212 26.182C33.0296 26.1635 33.3243 26.0647 33.5665 25.8985C34.2904 25.3889 35.1936 25.1085 36.1268 25.1035C36.6713 25.1035 37.2105 25.1963 37.7136 25.3766C38.2167 25.5569 38.6738 25.8212 39.0589 26.1544C39.4439 26.4876 39.7494 26.8831 39.9577 27.3185C40.1661 27.7538 40.2734 28.2204 40.2734 28.6916C40.2734 29.1628 40.1661 29.6294 39.9577 30.0647C39.7494 30.5 39.4439 30.8956 39.0589 31.2287C38.6738 31.5619 38.2167 31.8262 37.7136 32.0065C37.2105 32.1869 36.6713 32.2797 36.1268 32.2797L36.1375 32.2783Z" fill="black"/>
<path d="M29.2177 11.501C29.3639 11.8219 29.6489 12.0809 30.0121 12.2228C30.3754 12.3648 30.7884 12.3786 31.1632 12.2613C31.5381 12.1439 31.8453 11.9048 32.0195 11.5946C32.1938 11.2843 32.2214 10.9276 32.0965 10.6L31.1502 8.34751C31.0815 8.18395 30.9763 8.0337 30.8405 7.90533C30.7047 7.77695 30.5411 7.67298 30.3588 7.59934C29.9908 7.45062 29.5696 7.43449 29.1879 7.5545C28.8061 7.67451 28.4951 7.92082 28.3233 8.23926C28.1514 8.55769 28.1327 8.92216 28.2714 9.25249L29.2177 11.501Z" fill="black"/>
<path d="M47.752 20.405L45.0264 19.9876C44.6263 19.9267 44.2147 20.0057 43.882 20.2073C43.5494 20.409 43.3229 20.7167 43.2524 21.0629C43.182 21.409 43.2733 21.7652 43.5063 22.0531C43.7394 22.3409 44.095 22.5369 44.495 22.5979L47.2206 23.0139C47.309 23.0282 47.3987 23.0353 47.4886 23.0351C47.8717 23.0349 48.2408 22.9105 48.523 22.6864C48.8053 22.4623 48.9802 22.1548 49.0133 21.8245C49.0464 21.4943 48.9352 21.1653 48.7017 20.9025C48.4682 20.6397 48.1293 20.4622 47.752 20.405Z" fill="black"/>
<path d="M43.5013 16.43C43.7703 16.4303 44.0346 16.3685 44.2669 16.2511L46.6618 15.0586C47.0106 14.8817 47.2644 14.5925 47.3677 14.2543C47.4711 13.916 47.4156 13.5561 47.2134 13.2531C47.0113 12.9501 46.6788 12.7285 46.2886 12.6369C45.8983 12.5452 45.482 12.5908 45.1305 12.7637L42.7357 13.9562C42.4438 14.1021 42.2156 14.3272 42.0866 14.5967C41.9577 14.8661 41.935 15.1649 42.0223 15.4466C42.1095 15.7284 42.3017 15.9773 42.5692 16.1549C42.8366 16.3324 43.1642 16.4287 43.5013 16.4287V16.43Z" fill="black"/>
<path d="M37.4099 12.2987C37.599 12.3579 37.7998 12.3844 38.0007 12.3765C38.2017 12.3687 38.3989 12.3266 38.581 12.2528C38.7632 12.179 38.9267 12.0748 39.0624 11.9463C39.198 11.8177 39.303 11.6673 39.3715 11.5037L40.3178 9.25115C40.4511 8.92188 40.429 8.56038 40.2562 8.24513C40.0834 7.92988 39.7739 7.68633 39.3949 7.56734C39.0158 7.44836 38.5978 7.46355 38.2317 7.60961C37.8655 7.75568 37.5806 8.02083 37.439 8.3475L36.4927 10.6C36.4239 10.7636 36.3931 10.9374 36.4019 11.1114C36.4108 11.2853 36.4592 11.4561 36.5444 11.6138C36.6296 11.7716 36.7499 11.9133 36.8984 12.0308C37.0469 12.1483 37.2207 12.2393 37.4099 12.2987Z" fill="black"/>
</g>
<defs>
<clipPath id="clip0">
<rect width="49" height="53" fill="white"/>
</clipPath>
</defs>
</svg>
